<svg width="30" height="27" viewBox="0 0 30 27" fill="none" xmlns="http://www.w3.org/2000/svg">
<path fill-rule="evenodd" clip-rule="evenodd" d="M2.5 0H27.5C28.8802 0 30 1.11979 30 2.5V19.1667C30 20.5469 28.8802 21.6667 27.5 21.6667H17.5L18.3333 24.1667H22.0833C22.776 24.1667 23.3333 24.724 23.3333 25.4167C23.3333 26.1094 22.776 26.6667 22.0833 26.6667H7.91667C7.22396 26.6667 6.66667 26.1094 6.66667 25.4167C6.66667 24.724 7.22396 24.1667 7.91667 24.1667H11.6667L12.5 21.6667H2.5C1.11979 21.6667 0 20.5469 0 19.1667V2.5C0 1.11979 1.11979 0 2.5 0ZM3.33333 18.3333H26.6667V3.33333H3.33333V18.3333Z" fill="white"/>
</svg>
