<svg width="30" height="24" viewBox="0 0 30 24" fill="none" xmlns="http://www.w3.org/2000/svg">
<path fill-rule="evenodd" clip-rule="evenodd" d="M29.6053 11.472V12.2122C29.6053 12.6211 29.2741 12.9523 28.8651 12.9523H24.0543V14.8026H26.6447C27.4621 14.8026 28.125 15.4655 28.125 16.2829V22.2039C28.125 23.0213 27.4621 23.6842 26.6447 23.6842H19.2434C18.426 23.6842 17.7632 23.0213 17.7632 22.2039V16.2829C17.7632 15.4655 18.426 14.8026 19.2434 14.8026H21.8339V12.9523H7.77138V14.8026H10.3618C11.1792 14.8026 11.8421 15.4655 11.8421 16.2829V22.2039C11.8421 23.0213 11.1792 23.6842 10.3618 23.6842H2.96053C2.14314 23.6842 1.48026 23.0213 1.48026 22.2039V16.2829C1.48026 15.4655 2.14314 14.8026 2.96053 14.8026H5.55099V12.9523H0.740132C0.331209 12.9523 0 12.6211 0 12.2122V11.472C0 11.0631 0.331209 10.7319 0.740132 10.7319H13.6924V8.88158H10.3618C9.54446 8.88158 8.88158 8.2187 8.88158 7.40132V1.48026C8.88158 0.66288 9.54446 0 10.3618 0H19.2434C20.0608 0 20.7237 0.66288 20.7237 1.48026V7.40132C20.7237 8.2187 20.0608 8.88158 19.2434 8.88158H15.9128V10.7319H28.8651C29.2741 10.7319 29.6053 11.0631 29.6053 11.472ZM11.8421 2.96053V5.92105H17.7632V2.96053H11.8421ZM8.88158 20.7237H4.44079V17.7632H8.88158V20.7237ZM20.7237 20.7237H25.1645V17.7632H20.7237V20.7237Z" fill="white"/>
</svg>
