<svg width="27" height="30" viewBox="0 0 27 30" fill="none" xmlns="http://www.w3.org/2000/svg">
<path fill-rule="evenodd" clip-rule="evenodd" d="M26.25 4.28572V6.96428C26.25 9.32479 20.3711 11.25 13.125 11.25C5.87889 11.25 0 9.32479 0 6.96428V4.28572C0 1.92522 5.87889 0 13.125 0C20.3711 0 26.25 1.92522 26.25 4.28572ZM26.25 10.3125V16.3393C26.25 18.6998 20.3711 20.625 13.125 20.625C5.87889 20.625 0 18.6998 0 16.3393V10.3125C2.81982 12.2545 7.98094 13.1585 13.125 13.1585C18.2691 13.1585 23.4301 12.2545 26.25 10.3125ZM26.25 25.7143V19.6875C23.4301 21.6295 18.2691 22.5335 13.125 22.5335C7.98094 22.5335 2.81982 21.6295 0 19.6875V25.7143C0 28.0748 5.87889 30 13.125 30C20.3711 30 26.25 28.0748 26.25 25.7143Z" fill="white"/>
</svg>
