<svg width="30" height="26" viewBox="0 0 30 26" fill="none" xmlns="http://www.w3.org/2000/svg">
<path fill-rule="evenodd" clip-rule="evenodd" d="M27.551 7.34694H1.83673C0.82234 7.34694 0 6.5246 0 5.5102V1.83673C0 0.82234 0.82234 0 1.83673 0H27.551C28.5654 0 29.3878 0.82234 29.3878 1.83673V5.5102C29.3878 6.5246 28.5654 7.34694 27.551 7.34694ZM24.7959 2.29592C24.0351 2.29592 23.4184 2.91266 23.4184 3.67347C23.4184 4.43428 24.0351 5.05102 24.7959 5.05102C25.5567 5.05102 26.1735 4.43428 26.1735 3.67347C26.1735 2.91266 25.5567 2.29592 24.7959 2.29592ZM19.7449 3.67347C19.7449 2.91266 20.3616 2.29592 21.1224 2.29592C21.8833 2.29592 22.5 2.91266 22.5 3.67347C22.5 4.43428 21.8833 5.05102 21.1224 5.05102C20.3616 5.05102 19.7449 4.43428 19.7449 3.67347ZM27.551 16.5306H1.83673C0.82234 16.5306 0 15.7083 0 14.6939V11.0204C0 10.006 0.82234 9.18367 1.83673 9.18367H27.551C28.5654 9.18367 29.3878 10.006 29.3878 11.0204V14.6939C29.3878 15.7083 28.5654 16.5306 27.551 16.5306ZM23.4184 12.8571C23.4184 12.0963 24.0351 11.4796 24.7959 11.4796C25.5567 11.4796 26.1735 12.0963 26.1735 12.8571C26.1735 13.618 25.5567 14.2347 24.7959 14.2347C24.0351 14.2347 23.4184 13.618 23.4184 12.8571ZM21.1224 11.4796C20.3616 11.4796 19.7449 12.0963 19.7449 12.8571C19.7449 13.618 20.3616 14.2347 21.1224 14.2347C21.8833 14.2347 22.5 13.618 22.5 12.8571C22.5 12.0963 21.8833 11.4796 21.1224 11.4796ZM1.83673 25.7143H27.551C28.5654 25.7143 29.3878 24.8919 29.3878 23.8776V20.2041C29.3878 19.1897 28.5654 18.3673 27.551 18.3673H1.83673C0.82234 18.3673 0 19.1897 0 20.2041V23.8776C0 24.8919 0.82234 25.7143 1.83673 25.7143ZM24.7959 20.6633C24.0351 20.6633 23.4184 21.28 23.4184 22.0408C23.4184 22.8016 24.0351 23.4184 24.7959 23.4184C25.5567 23.4184 26.1735 22.8016 26.1735 22.0408C26.1735 21.28 25.5567 20.6633 24.7959 20.6633ZM19.7449 22.0408C19.7449 21.28 20.3616 20.6633 21.1224 20.6633C21.8833 20.6633 22.5 21.28 22.5 22.0408C22.5 22.8016 21.8833 23.4184 21.1224 23.4184C20.3616 23.4184 19.7449 22.8016 19.7449 22.0408Z" fill="white"/>
</svg>
